<svg id="cock" enable-background="new 0 0 300 300" height="512" viewBox="0 0 300 300" width="512" xmlns="http://www.w3.org/2000/svg"><g><circle cx="166" cy="170" fill="#edebdc" r="92"/><path d="m60 258c-7.719 0-14-6.281-14-14s6.281-14 14-14 14 6.281 14 14-6.281 14-14 14zm0-20c-3.309 0-6 2.691-6 6s2.691 6 6 6 6-2.691 6-6-2.691-6-6-6z" fill="#4c241d"/><circle cx="94" cy="210" fill="#4c241d" r="4"/><circle cx="170" cy="46" fill="#4c241d" r="4"/><path d="m202.653 251.348c-1.023 0-2.047-.391-2.828-1.172-1.562-1.562-1.562-4.094 0-5.656l14.695-14.695c1.562-1.562 4.094-1.562 5.656 0s1.562 4.094 0 5.656l-14.695 14.695c-.781.781-1.805 1.172-2.828 1.172z" fill="#4c241d"/><path d="m217.348 251.348c-1.023 0-2.047-.391-2.828-1.172l-14.695-14.695c-1.562-1.562-1.562-4.094 0-5.656s4.094-1.562 5.656 0l14.695 14.695c1.562 1.562 1.562 4.094 0 5.656-.781.781-1.804 1.172-2.828 1.172z" fill="#4c241d"/><g><path d="m234 162v-56-4c0-18.378-15.493-33.138-34.13-31.931-17.008 1.101-29.87 14.887-29.87 31.931h-40c-6.928 0-12-4.958-12-12v-13.371c0-8.963-4.06-17.287-10.511-22.629h-33.307c-5.462 4.433-11.372 12.561-12.182 20l-16 16h28v49.5c0 13.451-1.424 24.846 10.464 28.9 4.534 10.356 14.859 17.6 26.888 17.6h53.297c12.993 0 23.995-8.451 27.858-20.149 3.396-1.278 6.636-2.866 9.73-4.675 6.957 17.596 21.998 31.382 41.211 36.186l2.552.638c-7.789-10.386-12-23.018-12-36z" fill="#ffce56"/><path d="m246 202c-.324 0-.648-.039-.973-.119l-2.551-.639c-18.484-4.621-33.953-17.357-42.156-34.471-1.555.785-3.113 1.5-4.668 2.139-5.008 12.691-17.234 21.09-31.004 21.09h-53.297c-12.672 0-24.195-7.184-29.824-18.441-11.801-5.01-11.676-16.789-11.555-28.195.013-1.266.028-2.555.028-3.864v-45.5h-24c-1.617 0-3.078-.975-3.695-2.469-.621-1.496-.277-3.215.867-4.359l15.059-15.061c1.473-8.309 7.668-16.539 13.43-21.217.711-.578 1.601-.894 2.519-.894h33.309c.93 0 1.832.324 2.551.918 7.488 6.201 11.96 15.812 11.96 25.711v13.371c0 4.785 3.215 8 8 8h36.211c1.848-17.34 15.586-30.77 33.402-31.924 10.074-.658 19.668 2.779 27.004 9.654 7.235 6.784 11.383 16.358 11.383 26.27v60c0 12.037 3.977 23.969 11.199 33.6 1.016 1.355 1.07 3.203.133 4.613-.753 1.133-2.011 1.787-3.332 1.787zm-43.761-44.824c.441 0 .883.072 1.309.219 1.102.383 1.98 1.227 2.41 2.311 5.672 14.338 16.984 25.641 31.035 31.352-4.551-8.966-6.993-18.98-6.993-29.058v-60c0-7.822-3.145-15.08-8.855-20.432-5.703-5.352-13.145-8.01-21.016-7.508-14.894.965-26.129 12.977-26.129 27.94 0 2.209-1.789 4-4 4h-40c-9.121 0-16-6.879-16-16v-13.371c0-7.066-2.973-13.928-8.016-18.629h-30.327c-4.504 4.051-9.055 10.672-9.68 16.432-.098.906-.504 1.752-1.148 2.396l-9.172 9.172h18.343c2.211 0 4 1.791 4 4v49.5c0 1.338-.016 2.654-.027 3.947-.133 12.457.145 18.561 7.785 21.168 1.062.361 1.922 1.154 2.371 2.182 4.043 9.236 13.157 15.203 23.223 15.203h53.297c10.953 0 20.625-6.994 24.062-17.402.379-1.148 1.254-2.062 2.387-2.488 3.012-1.137 6.082-2.613 9.125-4.389.617-.362 1.317-.545 2.016-.545z" fill="#4c241d"/></g><g><path d="m107.49 54c-.156-.129 1.481 0 2.511 0 6.627 0 12-5.372 12-12 0-6.627-5.373-12-12-12h-36.001c-6.627 0-12 5.373-12 12 0 6.628 5.373 12 12 12 .067 0 .131-.013.197-.014-.006.005-.011.01-.016.014z" fill="#e86436"/><path d="m110 58c-.414 0-.914-.018-1.375-.035-.176-.006-.344-.014-.488-.018-.211.035-.43.053-.648.053h-33.309c-.125 0-.254-.006-.375-.018-8.836-.191-15.805-7.289-15.805-15.982 0-8.822 7.176-16 16-16h36c8.824 0 16 7.178 16 16s-7.175 16-16 16zm-36-24c-4.41 0-8 3.588-8 8s3.59 8 8 8c.059 0 .121.002.18.004v-.004h33.066c.625-.068 1.219-.047 1.672-.029l1.082.029c4.41 0 8-3.588 8-8s-3.59-8-8-8z" fill="#4c241d"/></g><g fill="#4c241d"><circle cx="82" cy="72" r="6"/><path d="m82 42c-2.211 0-4-1.791-4-4v-8c0-2.209 1.789-4 4-4s4 1.791 4 4v8c0 2.209-1.789 4-4 4z"/><path d="m98 42c-2.211 0-4-1.791-4-4v-8c0-2.209 1.789-4 4-4s4 1.791 4 4v8c0 2.209-1.789 4-4 4z"/><path d="m238.004 198c-1.191 0-2.371-.529-3.16-1.545-19.625-25.229-22.137-59.912-21.887-78.342.043-3.219-1.176-6.252-3.434-8.541-2.273-2.305-5.312-3.572-8.559-3.572h-2.964c-6.617 0-12 5.383-12 12 0 2.209-1.789 4-4 4s-4-1.791-4-4c0-11.027 8.973-20 20-20h2.965c5.402 0 10.465 2.115 14.254 5.953 3.773 3.826 5.812 8.895 5.738 14.27-.234 17.381 2.074 50.02 20.199 73.322 1.359 1.742 1.043 4.256-.699 5.613-.73.567-1.597.842-2.453.842z"/><path d="m146 138h-4c-15.438 0-28-12.561-28-28v-20c0-2.209 1.789-4 4-4s4 1.791 4 4v20c0 11.027 8.973 20 20 20h4c8.609 0 16.234-5.48 18.969-13.637.707-2.096 2.98-3.215 5.066-2.521 2.094.703 3.223 2.971 2.52 5.064-3.832 11.422-14.504 19.094-26.555 19.094z"/><path d="m146 162h-4c-15.438 0-28-12.561-28-28v-20c0-2.209 1.789-4 4-4s4 1.791 4 4v20c0 11.027 8.973 20 20 20h4c8.609 0 16.234-5.48 18.969-13.637.707-2.094 2.98-3.215 5.066-2.521 2.094.703 3.223 2.971 2.52 5.064-3.832 11.422-14.504 19.094-26.555 19.094z"/><path d="m168.762 121.637c-.418 0-.848-.068-1.266-.207-2.098-.701-3.227-2.967-2.527-5.062.684-2.051 1.031-4.193 1.031-6.367v-8c0-2.209 1.789-4 4-4s4 1.791 4 4v8c0 3.037-.484 6.031-1.445 8.902-.558 1.673-2.117 2.734-3.793 2.734z"/></g><g><path d="m126 186h36v16h-36z" fill="#6b4f5b"/><path d="m162 206h-36c-2.211 0-4-1.791-4-4v-16c0-2.209 1.789-4 4-4h36c2.211 0 4 1.791 4 4v16c0 2.209-1.789 4-4 4zm-32-8h28v-8h-28z" fill="#4c241d"/></g><g><path d="m150 270v-68h-12v68" fill="#bf7e68"/><path d="m150 274c-2.211 0-4-1.791-4-4v-64h-4v64c0 2.209-1.789 4-4 4s-4-1.791-4-4v-68c0-2.209 1.789-4 4-4h12c2.211 0 4 1.791 4 4v68c0 2.209-1.789 4-4 4z" fill="#4c241d"/></g><g><path d="m82 138h-7.929c-6.666 0-12.071-5.405-12.071-12.071v-35.929h20z" fill="#e86436"/><path d="m82 142h-7.93c-8.859 0-16.07-7.211-16.07-16.072v-35.928c0-2.209 1.789-4 4-4h20c2.211 0 4 1.791 4 4v48c0 2.209-1.789 4-4 4zm-16-48v31.928c0 4.451 3.621 8.072 8.07 8.072h3.93v-40z" fill="#4c241d"/></g></g></svg>