<?xml version="1.0" encoding="iso-8859-1"?>
<!-- Generator: Adobe Illustrator 22.1.0, SVG Export Plug-In . SVG Version: 6.00 Build 0)  -->
<svg xmlns="http://www.w3.org/2000/svg" xmlns:xlink="http://www.w3.org/1999/xlink" version="1.1" id="Layer_3" x="0px" y="0px" viewBox="0 0 64 64" style="enable-background:new 0 0 64 64;" xml:space="preserve" width="512" height="512">
<g>
	<g>
		<path style="fill:#D5AC90;" d="M22,29l-7,2l-6,5l-5,2l-2,4C2,44.703,4.297,47,7,47c2.761,0,5-2.239,5-5l0-2l10-3l2,7l-3,4l-1,4h8    l3-4h2l3,4h8l-1-4l-3-4l2-7l10,3l0,2c0,2.761,2.238,5,5,5c2.703,0,5.001-2.297,5-5l-2-4l-5-2l-6-5l-7-2"/>
	</g>
	<g>
		<polygon style="fill:#74564A;" points="9,36 12,40 15.913,38.826 12.882,32.765   "/>
	</g>
	<g>
		<polygon style="fill:#74564A;" points="51.118,32.765 48.087,38.826 52,40 55,36   "/>
	</g>
	<g>
		<polyline style="fill:#D5AC90;" points="27,25 27,29 32,30 37,29 37,25   "/>
	</g>
	<g>
		<polyline style="fill:#7B7F7E;" points="6,37 4,31 9,32 15,31   "/>
	</g>
	<g>
		<polyline style="fill:#7B7F7E;" points="58,37 60,31 55,32 49,31   "/>
	</g>
	<g>
		<polygon style="fill:#39474E;" points="31,48 28,52 20,52 21,48 22.5,46 26,46   "/>
	</g>
	<g>
		<polygon style="fill:#39474E;" points="33,48 36,52 44,52 43,48 41.5,46 38,46   "/>
	</g>
	<g>
		<polygon style="fill:#992C38;" points="27,29 22,29 21,33 22,37 24,44 22.5,46 26,46 31,48 33,48 38,46 41.5,46 40,44 42,37     43,33 42,29 37,29 32,30   "/>
	</g>
	<g>
		<path style="fill:#74564A;" d="M28,52h-9l-1,6h-3c-1.105,0-2,0.895-2,2v2h14l-1-4L28,52z"/>
	</g>
	<g>
		<path style="fill:#74564A;" d="M36,52h9l1,6h3c1.105,0,2,0.895,2,2v2H37l1-4L36,52z"/>
	</g>
	<g>
		<polygon style="fill:#74564A;" points="22.294,38.029 32,39 41.706,38.029 40.593,41.926 32,43 23.407,41.926   "/>
	</g>
	<g>
		<path style="fill:#7B7F7E;" d="M22,14l-6,13l0.172-0.069C19.361,25.655,22.765,25,26.2,25h0.193"/>
	</g>
	<g>
		<path style="fill:#7B7F7E;" d="M42,14l6,13l-0.172-0.069C44.639,25.655,41.235,25,37.8,25h-0.193"/>
	</g>
	<g>
		<path style="fill:#DFE0E0;" d="M34,26h-4c-3.866,0-7-3.134-7-7v-8c0-3.866,3.134-7,7-7h4c3.866,0,7,3.134,7,7v8    C41,22.866,37.866,26,34,26z"/>
	</g>
	<g>
		<polygon style="fill:#7B7F7E;" points="44,10 44,14 20,14 20,10 30,10 30,2 34,2 34,10   "/>
	</g>
	<g>
		<polyline style="fill:#657B88;" points="23,14 23,18 29,19 32,18 35,19 41,18 41,14   "/>
	</g>
	<g>
		<path d="M27,63H13c-0.553,0-1-0.448-1-1v-2c0-1.654,1.346-3,3-3h2.153l0.86-5.165C18.094,51.354,18.511,51,19,51h9    c0.321,0,0.623,0.154,0.812,0.416c0.188,0.261,0.239,0.596,0.137,0.901l-1.907,5.724l0.929,3.717    c0.075,0.299,0.008,0.615-0.182,0.858S27.308,63,27,63z M14,61h11.719l-0.688-2.757c-0.047-0.185-0.039-0.378,0.021-0.559    L26.612,53h-6.766l-0.86,5.165C18.906,58.646,18.489,59,18,59h-3c-0.552,0-1,0.449-1,1V61z"/>
	</g>
	<g>
		<path d="M51,63H37c-0.308,0-0.599-0.142-0.788-0.385s-0.257-0.559-0.182-0.858l0.929-3.717l-1.907-5.724    c-0.103-0.305-0.051-0.64,0.137-0.901C35.377,51.154,35.679,51,36,51h9c0.489,0,0.906,0.354,0.986,0.835L46.847,57H49    c1.654,0,3,1.346,3,3v2C52,62.552,51.553,63,51,63z M38.281,61H50v-1c0-0.551-0.448-1-1-1h-3c-0.489,0-0.906-0.354-0.986-0.835    L44.153,53h-6.766l1.561,4.684c0.061,0.181,0.068,0.375,0.021,0.559L38.281,61z"/>
	</g>
	<g>
		<path d="M30.629,48.929L25.808,47H22v-2h4c0.127,0,0.253,0.024,0.371,0.071l5,2L30.629,48.929z"/>
	</g>
	<g>
		<path d="M33.371,48.929l-0.742-1.857l5-2C37.747,45.024,37.873,45,38,45h4v2h-3.808L33.371,48.929z"/>
	</g>
	<g>
		<path d="M32,44c-0.041,0-0.083-0.002-0.124-0.008l-8-1l0.248-1.984L32,41.992l7.876-0.984l0.248,1.984l-8,1    C32.083,43.998,32.041,44,32,44z"/>
	</g>
	<g>
		<path d="M32,31c-0.065,0-0.132-0.006-0.196-0.02l-5-1C26.337,29.887,26,29.477,26,29v-4h2v3.18l4,0.8l4-0.8V25h2v4    c0,0.477-0.337,0.887-0.804,0.98l-5,1C32.132,30.994,32.065,31,32,31z"/>
	</g>
	<g>
		<path d="M21.03,37.243l-1-4c-0.04-0.159-0.04-0.326,0-0.485l1-4C21.142,28.312,21.541,28,22,28h5v2h-4.219l-0.75,3l0.938,3.757    L21.03,37.243z"/>
	</g>
	<g>
		<path d="M42.97,37.243l-1.939-0.485L41.969,33l-0.75-3H37v-2h5c0.459,0,0.858,0.312,0.97,0.757l1,4c0.04,0.159,0.04,0.326,0,0.485    L42.97,37.243z"/>
	</g>
	<g>
		<path d="M44,53h-8c-0.314,0-0.611-0.148-0.8-0.4L32.5,49h-1l-2.7,3.6C28.611,52.852,28.314,53,28,53h-8    c-0.308,0-0.599-0.142-0.788-0.385s-0.257-0.559-0.182-0.858l1-4c0.032-0.129,0.09-0.25,0.17-0.357l2.702-3.603l-1.586-5.548    L13,40.744V42c0,3.309-2.691,6-6,6c-3.252,0-6-2.748-6-6c0-0.155,0.036-0.309,0.105-0.447l2-4c0.109-0.219,0.296-0.39,0.523-0.481    l4.853-1.941l5.878-4.898c0.107-0.089,0.232-0.155,0.366-0.193l7-2l0.549,1.923l-6.797,1.942l-5.837,4.865    c-0.081,0.067-0.172,0.122-0.27,0.161l-4.646,1.858l-1.718,3.436C3.127,44.292,4.906,46,7,46c2.206,0,4-1.794,4-4v-2    c0-0.441,0.29-0.831,0.713-0.958l10-3c0.255-0.075,0.532-0.048,0.767,0.081c0.235,0.128,0.408,0.346,0.482,0.603l2,7    c0.086,0.301,0.025,0.625-0.162,0.875l-2.879,3.838L21.281,51H27.5l2.7-3.6c0.188-0.252,0.485-0.4,0.8-0.4h2    c0.314,0,0.611,0.148,0.8,0.4l2.7,3.6h6.219l-0.64-2.562L39.2,44.6c-0.188-0.25-0.248-0.574-0.162-0.875l2-7    c0.074-0.257,0.247-0.474,0.482-0.603c0.234-0.129,0.512-0.157,0.767-0.081l10,3C52.71,39.169,53,39.559,53,40v2    c0,2.206,1.794,4,4,4c2.094,0,3.873-1.708,3.993-3.777l-1.718-3.436l-4.646-1.858c-0.098-0.039-0.188-0.093-0.27-0.161    l-5.837-4.865l-6.797-1.942l0.549-1.923l7,2c0.134,0.038,0.259,0.104,0.366,0.193l5.878,4.898l4.853,1.941    c0.228,0.091,0.414,0.262,0.523,0.481l2,4C62.964,41.691,63,41.844,63,42c0,3.252-2.748,6-6,6c-3.309,0-6-2.691-6-6v-1.256    l-8.316-2.495l-1.586,5.548L43.8,47.4c0.08,0.107,0.138,0.228,0.17,0.357l1,4c0.075,0.299,0.008,0.615-0.182,0.858    S44.308,53,44,53z"/>
	</g>
	<g>
		<path d="M44,15H20c-0.553,0-1-0.448-1-1v-4c0-0.552,0.447-1,1-1h9V2c0-0.552,0.447-1,1-1h4c0.553,0,1,0.448,1,1v7h9    c0.553,0,1,0.448,1,1v4C45,14.552,44.553,15,44,15z M21,13h22v-2h-9c-0.553,0-1-0.448-1-1V3h-2v7c0,0.552-0.447,1-1,1h-9V13z"/>
	</g>
	<g>
		<path d="M34,27h-4c-4.411,0-8-3.589-8-8v-5h2v5c0,3.309,2.691,6,6,6h4c3.309,0,6-2.691,6-6v-5h2v5C42,23.411,38.411,27,34,27z"/>
	</g>
	<g>
		<path d="M39.938,10.142C39.52,7.21,36.966,5,34,5V3c3.955,0,7.359,2.948,7.919,6.858L39.938,10.142z"/>
	</g>
	<g>
		<path d="M24.062,10.142l-1.98-0.283C22.641,5.948,26.045,3,30,3v2C27.034,5,24.48,7.21,24.062,10.142z"/>
	</g>
	<g>
		<path d="M35,20c-0.107,0-0.214-0.017-0.316-0.051L32,19.054l-2.684,0.895c-0.155,0.052-0.321,0.064-0.48,0.038l-6-1l0.328-1.973    l5.755,0.959l2.765-0.921c0.205-0.068,0.428-0.068,0.633,0l2.765,0.921l5.755-0.959l0.328,1.973l-6,1    C35.11,19.996,35.055,20,35,20z"/>
	</g>
	<g>
		<path d="M16,28c-0.269,0-0.532-0.108-0.725-0.312c-0.282-0.297-0.355-0.736-0.184-1.107l6-13l1.816,0.838l-5.002,10.836    C20.59,24.421,23.37,24,26.2,24h0.192v2H26.2c-3.323,0-6.572,0.625-9.657,1.86l-0.171,0.068C16.251,27.977,16.125,28,16,28z"/>
	</g>
	<g>
		<path d="M48,28c-0.125,0-0.251-0.023-0.372-0.072l-0.172-0.069C44.372,26.625,41.123,26,37.8,26h-0.192v-2H37.8    c2.83,0,5.611,0.421,8.294,1.255l-5.002-10.836l1.816-0.838l6,13c0.172,0.372,0.099,0.811-0.184,1.107    C48.532,27.892,48.269,28,48,28z"/>
	</g>
	<g>
		<path d="M5.052,37.316l-2-6c-0.113-0.338-0.037-0.711,0.198-0.978c0.236-0.268,0.597-0.391,0.946-0.319l4.82,0.964l5.819-0.97    l0.328,1.973l-6,1c-0.118,0.021-0.242,0.019-0.36-0.006l-3.311-0.662l1.455,4.365L5.052,37.316z"/>
	</g>
	<g>
		<rect x="9.5" y="35.5" transform="matrix(0.8 -0.6 0.6 0.8 -20.7 13.9)" width="2" height="5"/>
	</g>
	<g>
		<rect x="13.5" y="32.646" transform="matrix(0.8944 -0.4472 0.4472 0.8944 -14.5689 10.2852)" width="2" height="6.708"/>
	</g>
	<g>
		<path d="M58.948,37.316l-1.896-0.633l1.455-4.365l-3.311,0.662c-0.119,0.024-0.242,0.026-0.36,0.006l-6-1l0.328-1.973l5.819,0.97    l4.82-0.964c0.35-0.071,0.71,0.052,0.946,0.319c0.235,0.267,0.312,0.64,0.198,0.978L58.948,37.316z"/>
	</g>
	<g>
		<rect x="51" y="37" transform="matrix(0.6002 -0.7999 0.7999 0.6002 -9.0039 57.9878)" width="5" height="2"/>
	</g>
	<g>
		<rect x="46.146" y="35" transform="matrix(0.4472 -0.8944 0.8944 0.4472 -4.8365 64.1745)" width="6.708" height="2"/>
	</g>
	<g>
		<path d="M32,40c-0.033,0-0.066-0.001-0.1-0.005l-10-1l0.199-1.99l9.9,0.99l9.9-0.99l0.199,1.99l-10,1    C32.066,39.999,32.033,40,32,40z"/>
	</g>
</g>
</svg>
