<svg id="corsair" enable-background="new 0 0 300 300" height="512" viewBox="0 0 300 300" width="512" xmlns="http://www.w3.org/2000/svg"><g><circle cx="180" cy="178" fill="#e7d1c4" r="74"/><path d="m59.656 169.656c-1.023 0-2.047-.391-2.828-1.172l-11.312-11.312c-1.562-1.562-1.562-4.094 0-5.656s4.094-1.562 5.656 0l11.312 11.312c1.562 1.562 1.562 4.094 0 5.656-.781.782-1.804 1.172-2.828 1.172z" fill="#4c241d"/><g><path d="m90 92h-20c-11.046 0-20 8.954-20 20v4h20c11.046 0 20-8.954 20-20z" fill="#e66353"/><path d="m70 120h-20c-2.211 0-4-1.791-4-4v-4c0-13.234 10.766-24 24-24h20c2.211 0 4 1.791 4 4v4c0 13.234-10.766 24-24 24zm-16-8h16c8.824 0 16-7.178 16-16h-16c-8.824 0-16 7.178-16 16z" fill="#4c241d"/></g><g><path d="m86 92h-20c-11.046 0-20-8.954-20-20v-4h20c11.046 0 20 8.954 20 20z" fill="#e66353"/><path d="m86 96h-20c-13.234 0-24-10.766-24-24v-4c0-2.209 1.789-4 4-4h20c13.234 0 24 10.766 24 24v4c0 2.209-1.789 4-4 4zm-36-24c0 8.822 7.176 16 16 16h16c0-8.822-7.176-16-16-16z" fill="#4c241d"/></g><path d="m48.344 169.656c-1.023 0-2.047-.391-2.828-1.172-1.562-1.562-1.562-4.094 0-5.656l11.312-11.312c1.562-1.562 4.094-1.562 5.656 0s1.562 4.094 0 5.656l-11.312 11.312c-.781.782-1.805 1.172-2.828 1.172z" fill="#4c241d"/><path d="m244 192c-7.719 0-14-6.281-14-14s6.281-14 14-14 14 6.281 14 14-6.281 14-14 14zm0-20c-3.309 0-6 2.691-6 6s2.691 6 6 6 6-2.691 6-6-2.691-6-6-6z" fill="#4c241d"/><g><path d="m94.744 192h94.511c13.667 0 24.745 11.078 24.745 24.744v43.256h-144v-43.256c0-13.666 11.078-24.744 24.744-24.744z" fill="#b5a19c"/><path d="m214 264h-144c-2.211 0-4-1.791-4-4v-43.256c0-15.849 12.895-28.744 28.746-28.744h94.508c15.851 0 28.746 12.895 28.746 28.744v43.256c0 2.209-1.789 4-4 4zm-140-8h136v-39.256c0-11.438-9.305-20.744-20.746-20.744h-94.508c-11.441 0-20.746 9.307-20.746 20.744z" fill="#4c241d"/></g><g><path d="m114 196c0 15.464 12.536 28 28 28s28-12.536 28-28" fill="#6b4f5b"/><path d="m142 228c-17.645 0-32-14.355-32-32 0-2.209 1.789-4 4-4s4 1.791 4 4c0 13.234 10.766 24 24 24s24-10.766 24-24c0-2.209 1.789-4 4-4s4 1.791 4 4c0 17.645-14.355 32-32 32z" fill="#4c241d"/></g><g><path d="m142 204c-8.837 0-16-7.163-16-16v-16h32v16c0 8.837-7.163 16-16 16z" fill="#ffded5"/><path d="m142 208c-11.027 0-20-8.973-20-20v-16c0-2.209 1.789-4 4-4h32c2.211 0 4 1.791 4 4v16c0 11.027-8.973 20-20 20zm-12-32v12c0 6.617 5.383 12 12 12s12-5.383 12-12v-12z" fill="#4c241d"/></g><g><path d="m194 118c-.12 0 0-10-.016-22h-99.967c-.017 12 .111 22-.017 22-5.645 0-10.196 4.676-9.993 10.366.114 3.199 2.082 6.09 4.735 7.88 3.217 2.171 5.979 2.016 8.431 1.192 3.969 19.359 18.022 35.548 37.428 41.794 5.563 1.791 11.58 1.62 17.14-.182l1.775-.575c19.093-6.188 33.023-22.039 37.173-41.079 2.441.861 5.221 1.011 8.369-.949 2.549-1.587 4.495-4.194 4.863-7.174.751-6.092-3.98-11.273-9.921-11.273z" fill="#ffded5"/><path d="m142.754 184.502c-3.195 0-6.348-.488-9.379-1.461-19.199-6.182-33.934-21.713-39.223-41.037-2.719.023-5.172-.771-7.648-2.443-3.914-2.643-6.344-6.775-6.492-11.055-.137-3.836 1.254-7.469 3.914-10.227 1.719-1.783 3.824-3.049 6.133-3.721-.004-1.498-.008-3.387-.016-5.326-.016-3.705-.035-8.303-.027-13.238.004-2.207 1.793-3.994 4-3.994h99.969c2.207 0 3.996 1.787 4 3.994.008 4.947-.012 9.555-.023 13.266-.008 1.934-.016 3.816-.016 5.309 2.504.736 4.781 2.166 6.543 4.16 2.656 3.002 3.898 7.023 3.402 11.031-.492 4-3.004 7.77-6.719 10.082-2.414 1.504-4.93 2.256-7.52 2.15-5.441 18.932-20.051 34.176-38.902 40.287l-1.777.574c-3.383 1.098-6.825 1.647-10.219 1.649zm-45.582-51.064c.691 0 1.383.18 1.996.533.992.57 1.691 1.541 1.922 2.664 3.738 18.232 17.051 33.098 34.738 38.789 4.633 1.492 9.711 1.432 14.68-.18l1.777-.574c17.379-5.635 30.598-20.244 34.492-38.127.246-1.121.961-2.084 1.961-2.643 1.008-.561 2.191-.66 3.281-.277 1.816.646 3.242.475 4.926-.572 1.684-1.049 2.805-2.645 3.008-4.268.215-1.762-.301-3.449-1.457-4.756-1.141-1.289-2.777-2.027-4.496-2.027-1.062 0-2.086-.424-2.836-1.178-1.242-1.246-1.242-1.246-1.203-11.592.008-2.678.02-5.826.023-9.23h-91.968c.004 3.393.016 6.529.027 9.201.039 10.369.039 10.369-1.207 11.621-.75.754-1.774 1.178-2.836 1.178-1.645 0-3.176.65-4.316 1.834-1.141 1.182-1.738 2.74-1.68 4.389.062 1.707 1.203 3.51 2.977 4.709 1.938 1.307 3.367 1.238 4.914.715.417-.141.847-.209 1.277-.209z" fill="#4c241d"/></g><g fill="#4c241d"><circle cx="122" cy="128" r="4"/><circle cx="166" cy="128" r="4"/><circle cx="245.792" cy="129.887" r="4.662"/><path d="m102 264c-2.211 0-4-1.791-4-4v-20c0-2.209 1.789-4 4-4s4 1.791 4 4v20c0 2.209-1.789 4-4 4z"/><path d="m186 264c-2.211 0-4-1.791-4-4v-20c0-2.209 1.789-4 4-4s4 1.791 4 4v20c0 2.209-1.789 4-4 4z"/><path d="m210 212h-24c-2.211 0-4-1.791-4-4s1.789-4 4-4h24c2.211 0 4 1.791 4 4s-1.789 4-4 4z"/><path d="m210 224h-20c-2.211 0-4-1.791-4-4s1.789-4 4-4h20c2.211 0 4 1.791 4 4s-1.789 4-4 4z"/><path d="m98 212h-24c-2.211 0-4-1.791-4-4s1.789-4 4-4h24c2.211 0 4 1.791 4 4s-1.789 4-4 4z"/><path d="m94 224h-20c-2.211 0-4-1.791-4-4s1.789-4 4-4h20c2.211 0 4 1.791 4 4s-1.789 4-4 4z"/></g><g><path d="m194 112h-39.451c-6.93 0-12.549-5.618-12.549-12.549v-3.451h52z" fill="#bf7e68"/><path d="m194 116h-39.453c-9.125 0-16.547-7.424-16.547-16.549v-3.451c0-2.209 1.789-4 4-4h52c2.211 0 4 1.791 4 4v16c0 2.209-1.789 4-4 4zm-47.984-16c.285 4.459 4.004 8 8.531 8h35.453v-8z" fill="#4c241d"/></g><g><path d="m144 40c-27.614 0-50 22.386-50 50v6h100v-6c0-27.614-22.386-50-50-50z" fill="#e66353"/><path d="m194 100h-100c-2.211 0-4-1.791-4-4v-6c0-29.775 24.223-54 54-54s54 24.225 54 54v6c0 2.209-1.789 4-4 4zm-96-8h92v-2c0-25.365-20.637-46-46-46s-46 20.635-46 46z" fill="#4c241d"/></g><g><path d="m94 104h-8c-6.627 0-12-5.373-12-12 0-6.627 5.373-12 12-12h8z" fill="#e66353"/><path d="m94 108h-8c-8.824 0-16-7.178-16-16s7.176-16 16-16h8c2.211 0 4 1.791 4 4v24c0 2.209-1.789 4-4 4zm-8-24c-4.41 0-8 3.588-8 8s3.59 8 8 8h4v-16z" fill="#4c241d"/></g></g></svg>